<svg width="159" height="32" viewBox="0 0 159 32" fill="none" xmlns="http://www.w3.org/2000/svg">
<circle cx="40.3044" cy="5.58223" r="1.5" fill="#72637D" stroke="#6A527D" stroke-width="1.24259"/>
<path d="M12.1134 2.8319C12.8065 6.82399 9.89629 12.069 9.42385 16.019C8.88095 20.5582 7.46478 24.8069 6.6216 29.1425" stroke="#6A527D" stroke-width="3" stroke-linecap="round"/>
<path d="M9.8745 16.2732C13.4475 15.2783 15.9749 12.8655 19.3459 11.9268C21.2379 11.4 24.9397 9.59815 26.4382 8.24294" stroke="#6A527D" stroke-width="3" stroke-linecap="round"/>
<path d="M12.4731 16.404C13.3705 19.6267 20.8768 27.0395 24.1576 27.6775" stroke="#6A527D" stroke-width="3" stroke-linecap="round"/>
<path d="M110.524 3.46091C112.505 6.99498 111.506 12.9094 112.375 16.7916C113.373 21.2528 113.451 25.7306 114.098 30.0998" stroke="#6A527D" stroke-width="3" stroke-linecap="round"/>
<path d="M112.884 16.8815C115.922 14.7546 117.503 11.6383 120.37 9.6316C121.979 8.50533 124.87 5.57451 125.832 3.79793" stroke="#6A527D" stroke-width="3" stroke-linecap="round"/>
<path d="M115.379 16.14C117.298 18.8805 126.843 23.3737 130.149 22.8838" stroke="#6A527D" stroke-width="3" stroke-linecap="round"/>
<path d="M39.446 11.9462C39.8823 15.9187 37.5444 20.7666 36.7029 24.67" stroke="#6A527D" stroke-width="3" stroke-linecap="round"/>
<path d="M50.3149 11.0705C50.9149 16.5326 51.8944 32.9883 51.2944 27.5262" stroke="#6A527D" stroke-width="3" stroke-linecap="round"/>
<path d="M51.3939 20.8901C52.856 20.542 57.1671 15.676 58.5384 14.3081C60.5541 12.2975 61.8124 9.85337 63.8394 11.8854C65.6271 13.6776 66.1956 17.9608 67.0308 20.4146C68.1116 23.5899 69.3698 26.2098 69.7466 29.6402" stroke="#6A527D" stroke-width="3" stroke-linecap="round"/>
<path d="M82.7234 25.8594C80.2517 21.6179 81.9086 12.4204 86.7422 11.3392C92.0724 10.7536 95.064 12.1048 98.9886 15.6069C102.441 18.6877 99.3487 26.3652 97.1038 28.6045C93.6511 32.0487 84.9926 29.7534 82.7234 25.8594Z" stroke="#6A527D" stroke-width="3" stroke-linecap="round"/>
<path d="M144.954 9.80352C139.291 9.80342 136.818 20.2038 139.29 24.4453C141.559 28.3393 150.218 30.6346 153.671 27.1905C155.915 24.9512 159.008 17.2737 155.555 14.1928C151.631 10.6907 148.638 9.33954 143.308 9.92508" stroke="#6A527D" stroke-width="3" stroke-linecap="round"/>
</svg>
